<?xml version="1.0" encoding="UTF-8"?>
<svg version="1.1" viewBox="0 0 900 900" width="225" height="225" xmlns="http://www.w3.org/2000/svg">
<path transform="translate(206,251)" d="m0 0 4 1 72 72 6 5 6 7 6 5 6 7 2 1v2l4 2 260 260 8 7 11 11v2l4 2 8 9 4 4v2l-386-1-129-129-6-5-71-71 1-4 8-7z" fill="#2E3542"/>
<path transform="translate(690,251)" d="m0 0 5 1 9 10 5 5 3 2v2l4 2v2l4 2v2l4 2v2l4 2 156 156-1 5-114 114-8 7-65 65-2 3-4-1-129-129-8-7-53-53-1-3 119-119h2l2-4 6-5 6-7 6-5 6-7 6-5 6-7 6-5 2-3h2l2-4h2l2-4 14-13z" fill="#79C1D4"/>
<path transform="translate(605,646)" d="m0 0 2 4-329-1v-1h327z" fill="#78C1D3"/>
<path transform="translate(568,511)" d="m0 0 4 2 102 102 2 1v2l4 2 7 8 7 6-3 1-123-123z" fill="#FEFEFE"/>
</svg>
