<?xml version="1.0" encoding="UTF-8"?>
<svg version="1.1" viewBox="0 0 2048 2048" width="700" height="700" xmlns="http://www.w3.org/2000/svg">
<path transform="translate(653,722)" d="m0 0 6 1 8 7 105 105 8 7 11 12 10 9 9 11 6 4 9 8v2l4 2 224 224v2l3 1v2l3 1v2l3 1v2l3 1v2h2l4 5 5 4 4 5 5 4 7 8 117 117 8 7 10 9 10 11 4 5 8 7 11 11 3 4v3h-200l-290-1-97-1-101-101v-2l-3-1v-2l-3-1v-2l-3-1v-2h-2l-4-5-2-1v-2l-3-1v-2l-4-2-72-72-8-7-59-59-5-4-4-5-2-1v-2l-4-2-20-20-7-8-6-6 1-5 7-8 10-9z" fill="#313844"/>
<path transform="translate(1393,703)" d="m0 0 3 1 146 146v2l3 1v2l3 1v2l3 1v2h2l7 8 42 42 5 4v2l3 1v2h2l3 3v2l3 1v2l3 1v2l4 2 68 68-1 3-8 7-4 8-178 178-8 7-78 78h-2v2l-5 4-5 5-8 9-1 2-6 1-1 3h-2v2l-8 7-6 6-4-2-296-296 3-4h2l1-3 5-4 4-5 5-4 1-2h2l1-3h2l1-3h2v-2l5-4 4-5 5-4 4-5 5-4 268-268z" fill="#7CC2D5"/>
<path transform="translate(1260,1323)" d="m0 0 3 2v3h-200l-290-1-12-1v-1h499z" fill="#7CC2D5"/>
</svg>
