<?xml version="1.0" encoding="UTF-8"?>
<svg version="1.1" viewBox="0 0 2048 2048" width="4000" height="4000" xmlns="http://www.w3.org/2000/svg">
<path transform="translate(335,240)" d="m0 0h292l1086 1v11l-16 179-11 121-28 310-26 288-43 477-2 21-8 3-67 19-485 137h-8l-475-134-81-23-1-1-55-605-12-133-12-130-20-222-28-308zm1018 1367m-4 1m-3 1m-8 2m-4 1m-3 1m-4 1m-4 1m-4 1m-3 1m-4 1m-4 1m-4 1m-3 1m-4 1m-4 1m-3 1m-4 1m-4 1m-3 1m-4 1m-4 1m-3 1m-4 1m-4 1m-4 1m-3 1m-4 1m-4 1m-4 1 4 1zm-3 1m-4 1m-4 1 4 1zm-3 1m-4 1 4 1zm-3 1m-4 1m-4 1 4 1zm-4 1 4 1zm-3 1m-4 1 4 1zm-4 1 4 1zm-3 1m-4 1 4 1zm-4 1 4 1zm-3 1m-4 1 4 1zm-4 1 4 1zm-3 1m-4 1 4 1zm-4 1 4 1zm-3 1m-4 1 4 1zm-4 1-7 2 4 1 7-2zm-11 3-7 2 4 1 7-2zm-11 3-3 2 7-1zm-7 2 4 1zm-4 1-7 2 4 1 7-2zm-11 3-7 2 4 1 7-2zm-11 3-66 18-3 2 8-1 65-18z" fill="#D3B528"/>
<path transform="translate(1025,365)" d="m0 0h565l-2 28-22 248-19 214-14 159-27 303-15 170-7 79-2 7-36 10-38 10-50 14-20 5-14 4-16 4-22 6h-4l-1 2-17 4h-4l-1 2-10 1-1 2-10 1-1 2-10 2-7 1-1 2-11 2-176 48-7 1z" fill="#FAD624"/>
<path transform="translate(1417,543)" d="m0 0h103v14l-11 150-156 1h-137v241l271-30h3v10l-9 109-18 220-9 109-1 3-368 96h-3l-2-122v-41l67-18 109-29 83-22 9-3 4-133-45 8-216 37h-5l-1-11-5-518v-69l127-1z" fill="#FDFEFE"/>
<path transform="translate(835,543)" d="m0 0h137v923l-11-2-333-90-59-16-1-1v-164l7 1 238 65 21 6v-289z" fill="#FDFEFE"/>
</svg>
