<?xml version="1.0" encoding="UTF-8"?>
<svg version="1.1" viewBox="0 0 2048 1536" width="800" height="600" xmlns="http://www.w3.org/2000/svg">
<path transform="translate(1039,105)" d="m0 0h29l28 3 20 4 27 8 22 9 23 11 27 16 16 11 12 9 14 11 13 12 14 15 11 14 13 18 12 19 14 26 12 27 9 24 4 3 17 4 31 8 36 12 21 8 23 10 21 10 22 12 24 15 14 10 16 12 14 12 12 11 19 19 9 11 11 14 12 17 13 23 11 23 6 15 7 23 6 24 7 38 3 26 3 40v77l-4 50-4 28-7 40-9 38-11 36-12 35-14 33-12 26-15 29-13 22-14 22-10 15-24 32-9 11-12 14-18 20-14 15-14 14-8 7-14 13-11 9-9 8-20 15-18 13-17 12-17 11-4 2-11 1h-147l-11-1-8-4-14-11-8-9-8-13-4-13-2-16-2-71-1-45-1-90-3-9-6-7-4-1v-2h-6l-2-1-1-1-4 1 5 1v2l5 1-2 2h-4v2l-5 1h-3l-4 2-6 1-2-1-1 2-8 2v-2l-5 2-5 5-1 2-2 1-3 10-1 4-3 1-1 2h2v4l-4 4-1 4-2-5 1-4-2-4-1-9-1-7-2-1-1 183-1 34-4 14-7 14-11 12-14 8-8 3-13 2-45 2-72 1h-48l-36-1-37-3-16-4-16-8-11-8-9-10-7-14-3-16-5-29-7-44-6-36-9-57-8-52-6-41-5-37-1-11-13-8-22-12-21-12-27-15-19-10-17-9-18-11-18-13-6-4 3 37 8 66 9 52 10 43 9 31 6 17 3 10 6 15 5 12 9 19 11 19 10 14 7 10 1 7-6 10-7 7-14 9-2 1h-8l-12-7-17-12-13-10-11-9-13-11-10-9-36-36-9-11-8-9-13-17-10-13-16-24-15-25-14-26-12-25-13-32-11-31-9-32-9-43-5-35-4-38-1-17v-54l3-43 7-56 10-53 9-37 20-60 9-22 9-20 8-16 11-21 14-23 12-18 14-19 10-13 12-14 11-12 7-8 20-20 8-7 10-9 11-9 16-12 18-13 26-16 28-15 21-10 27-11 36-12 40-10 40-7 25-3 50-2 6-2 10-10 11-9 18-14 19-12 24-13 19-8 21-7 20-5zm-523 821m597 168 4 1zm25 0m-30 1m12 0m-16 1-10 6-7 8-3 6v2l3 1 5-6 4-5 6-5 2 1 3-3 5-3-4-1zm43 0m-16 2 1 2zm-1 2m6 0m6 0m-19 6m-15 2m8 0-1 2h2z" fill="#37A4FD"/>
<path transform="translate(466,769)" d="m0 0 8 1 29 14 21 10 24 10 27 10 29 8 25 6 7 3 3 7 3 17v35l-4 20-5 17-8 15-7 9-11 11-13 8-4 1-16-8-15-8-18-11-18-13-7-5-4-5-8-7-15-15-13-17-11-18-8-18-5-19-2-18v-14l2-13 6-8z" fill="#CBE4FE"/>
<path transform="translate(1362,366)" d="m0 0 3 4 8 22 7 29 2 12 3 37v33l-3 32-4 25-7 30-8 28-13 35-13 29-8 16-14 27-15 25-14 22-11 16-14 20-11 14-12 13-21 21-11 9-12 10-17 12-18 11-18 10-19 9-20 8-25 8-21 5-35 5-11 1h-38l-35-4-23-4-25-6-27-8-37-14-24-11-14-7 3-1 20 9 24 9 29 9 30 7 38 6 27 2h40l20-2 29-5 28-7 26-9 23-10 19-10 19-12 19-14 13-11 10-9 22-22 18-22 12-16 13-19 16-24 9-15 10-18 8-15 13-28 12-28 8-22 10-33 7-28 6-35 4-37v-41l-2-24-3-24-5-22z" fill="#056598"/>
<path transform="translate(688,565)" d="m0 0h22l17 4 19 10 12 11 9 11 8 15 5 14 4 20 3 18h-2l-9-16-8-12-8-10-12-12-15-10-10-5-12-3h-25l-16 4-15 7-11 6-14 10-13 11-12 11-7 7-1-3 5-15 10-20 10-14 11-12 10-9 13-8 16-7z" fill="#056598"/>
<path transform="translate(1681 1e3)" d="m0 0h2l-2 9-13 37-12 28-12 26-15 29-13 22-14 22-10 15-24 32-9 11-12 14-18 20-14 15-14 14-8 7-14 13-11 9-9 8-20 15-18 13-17 12-17 11-6 2-25-1v-2l3-2v-3l19-5 1-1h7l10-6 9-3 6-5v-2l14-10h2l2-4 11-7 5-4h2l1-4h2v-2l10-8 12-12h2v-2l11-9 3-3h2v-2h2v-2l8-7 5-5 7-6 9-11h2l1-3 5-5 10-9 5-8 7-7 11-14 5-6 2-2 6-7 4-7 7-8 5-10 7-10 6-9 5-9 4-4 10-18 4-4 9-17 3-7 5-9 3-7 6-11 4-10 8-18 2-4 4-10 2-4 4-13 3-5z" fill="#2B90F7"/>
<path transform="translate(1080,1260)" d="m0 0h1l1 29v47l-4 14-7 14-11 12-14 8-8 3-13 2h-11l-8-1v-3l-2-2 7-3 19-5 7-2 16-8 7-2 2-4 3-3 4-10 4-8 4-32z" fill="#2A90F7"/>
<path transform="translate(1119,1093)" d="m0 0h14l10 1 1 3h-4l5 1v2l5 1-2 2h-4v2l-5 1h-3l-4 2-6 1-2-1-1 2-8 2v-2l-5 2-5 5-1 2-2 1-3 10-1 4-3 1-1 2h2v4l-4 4-1 4-2-5 1-4-2-4-1-9-1-7 1-4h2l1-3 5-5 8-6 8-4-4-1-1-2 4 1v-2h7zm1 2m11 3 1 2zm-1 2m6 0m6 0m-19 6m-15 2m8 0-1 2h2z" fill="#888"/>
<path transform="translate(579,1224)" d="m0 0 4 1 13 23 10 14 7 10 1 7-6 10-7 7-14 9-2 1h-8l-4-4-6-4 1-2 12-3h5l2 2 6-1 8-5 2-1 2-6v-12l-7-11-8-12-4-8-6-13z" fill="#2F92F6"/>
<path transform="translate(1403,1366)" d="m0 0h4v2l-3 1 2 3-2 4-17 11-6 2-25-1v-2l3-2v-3l19-5 1-1h7l10-6z" fill="#288FF8"/>
<path transform="translate(524,938)" d="m0 0 5 2 5 4-1 5-2 3 1 2-4 1-4-2-2-10z" fill="#868686"/>
<path transform="translate(776,1381)" d="m0 0 12 2 14 2 3 2v2h-9l-19-3-3-1z" fill="#3494F5"/>
<path transform="translate(1212,1384)" d="m0 0 11 1v2l7 1v1h-16l-4-2v-2z" fill="#2990F8"/>
<path transform="translate(1689,978)" d="m0 0 2 4-5 16h-2l1-10z" fill="#3394F5"/>
<path transform="translate(558,1165)" d="m0 0 2 3 3 10-3 1-4-6 1-7z" fill="#4A9CEC"/>
<path transform="translate(1054,1387)" d="m0 0h6l2 3-1 3-4 1-3-2v-3h-2l-1 2v-3z" fill="#868686"/>
<path transform="translate(579,1224)" d="m0 0 4 1 5 10-4-1-4-8z" fill="#3F97EF"/>
<path transform="translate(1598,1199)" d="m0 0 4 2 1-2v2l2 1-5 2h-4v2h-5l2-3h4z" fill="#868686"/>
<path transform="translate(1066,1380)" d="m0 0 5 3-4 2v2h-3l-1 2h-2l-1-3h4v-5z" fill="#868686"/>
<path transform="translate(1392,1378)" d="m0 0h3l1 3-8 5 1-7z" fill="#44A8F9"/>
<path transform="translate(1402,1387)" d="m0 0 1 4-2 5-3-1-3 1-1-2 2-2 4-1v-3z" fill="#868686"/>
<path transform="translate(1468,1342)" d="m0 0 1 3h3l1-2-1 5h-3l-1 2h-2l-2-4 4-1z" fill="#868686"/>
<path transform="translate(1409,1385)" d="m0 0 4 1 1 4-6 2 1-4-3 1-2-2z" fill="#868686"/>
<path transform="translate(1461,1344)" d="m0 0 2 1v3h-3v2h-3l-1 3-2-2 2-3h3v-3z" fill="#868686"/>
<path transform="translate(1601,1191)" d="m0 0h6l1 2-3 1-2-1 1 4-2 1-4-5z" fill="#868686"/>
<path transform="translate(1443,1360)" d="m0 0h9l-3 3-4 1 3 1-3 1-2-2z" fill="#868686"/>
<path transform="translate(1441,1364)" d="m0 0h2l-2 6h-4l1-4z" fill="#868686"/>
<path transform="translate(1412,1381)" d="m0 0h6l2 2-4 1-1 2h-2z" fill="#868686"/>
<path transform="translate(1567,1237)" d="m0 0h2l1 4-6 3 1-4z" fill="#868686"/>
<path transform="translate(1456,1353)" d="m0 0 5 1v2l-8 3v-2h2l-1-3z" fill="#868686"/>
<path transform="translate(1430,1368)" d="m0 0 4 1 2 2-4 2v-2h-2z" fill="#868686"/>
<path transform="translate(1437,1362)" d="m0 0 1 2-1 3-3 1-4-2 4-1z" fill="#868686"/>
<path transform="translate(1519,1291)" d="m0 0 4 1 1 7-3-1 1-3-2-1z" fill="#868686"/>
<path transform="translate(1572,1231)" d="m0 0 5 1-1 3-4 2-1-4z" fill="#868686"/>
<path transform="translate(1049,1392)" d="m0 0 5 1v2l-3 1-3-3z" fill="#868686"/>
<path transform="translate(1507,1306)" d="m0 0 1 2 3 1-2 3h-2z" fill="#868686"/>
<path transform="translate(1513,1303)" d="m0 0 4 1-4 5z" fill="#868686"/>
<path transform="translate(1588,1211)" d="m0 0 3 3-4 1v-3z" fill="#868686"/>
<path transform="translate(1476,1338)" d="m0 0 2 1-2 6-2-4z" fill="#868686"/>
<path transform="translate(1585,1218)" d="m0 0 2 1-3 3-3-1 1-2z" fill="#868686"/>
<path transform="translate(1403,1392)" d="m0 0h4v3h-3z" fill="#868686"/>
<path transform="translate(1526,1283)" d="m0 0h5l-1 3-4-1z" fill="#868686"/>
<path transform="translate(1542,1276)" d="m0 0v3l-4-1z" fill="#868686"/>
<path transform="translate(1557,1251)" d="m0 0 1 2 3 1h-7l3-1z" fill="#868686"/>
<path transform="translate(1427,1371)" d="m0 0h2v5h-2z" fill="#868686"/>
<path transform="translate(1480,1329)" d="m0 0 2 4-4-2z" fill="#868686"/>
<path transform="translate(1483,1327)" d="m0 0h2l-2 4z" fill="#868686"/>
<path transform="translate(1495,1321)" d="m0 0 3 1-1 2-2-1-1 2z" fill="#868686"/>
<path transform="translate(1562,1244)" d="m0 0 2 1-3 3-1-3z" fill="#868686"/>
<path transform="translate(1580,1227)" d="m0 0h2v2h-2l-1 2-1-3z" fill="#868686"/>
<path transform="translate(1616,1171)" d="m0 0h5l-2 3z" fill="#868686"/>
<path transform="translate(1620,1163)" d="m0 0 5 1-4 2z" fill="#868686"/>
<path transform="translate(1651,1115)" d="m0 0 3 1-1 3h-2z" fill="#868686"/>
<path transform="translate(1453,1352)" d="m0 0v3l-2 1v-3z" fill="#868686"/>
<path transform="translate(1461,1349)" d="m0 0 3 2v2h-2z" fill="#868686"/>
<path transform="translate(1471,1336)" d="m0 0 3 1-5 2z" fill="#868686"/>
<path transform="translate(1489,1328)" d="m0 0 2 1v2l-4-1h2z" fill="#868686"/>
<path transform="translate(1594,1208)" d="m0 0 2 2-4 1v-2z" fill="#868686"/>
<path transform="translate(1597,1196)" d="m0 0h4v2l-4-1z" fill="#868686"/>
<path transform="translate(1630,1150)" d="m0 0 4 2-4 1z" fill="#868686"/>
<path transform="translate(1045,1393)" d="m0 0 3 1v2h-2z" fill="#868686"/>
<path transform="translate(1424,1379)" d="m0 0 3 1-3 2z" fill="#868686"/>
<path transform="translate(1438,1360)" d="m0 0 3 1-2 2z" fill="#868686"/>
<path transform="translate(1449,1356)" d="m0 0 3 1-4 1z" fill="#868686"/>
<path transform="translate(1465,1342)" d="m0 0 2 2-3 1-1-2z" fill="#868686"/>
<path transform="translate(1480,1336)" d="m0 0h2v2l-4-1z" fill="#868686"/>
<path transform="translate(1482,1333)" d="m0 0 3 3h-3z" fill="#868686"/>
<path transform="translate(1480,1333)" d="m0 0 1 2-4 1z" fill="#868686"/>
<path transform="translate(1476,1331)" d="m0 0 1 3-3-1z" fill="#868686"/>
<path transform="translate(1558,1256)" d="m0 0 3 1-3 2z" fill="#868686"/>
<path transform="translate(1574,1237)" d="m0 0 2 2-4 1 2-1z" fill="#868686"/>
<path transform="translate(1578,1231)" d="m0 0 2 4-2 1z" fill="#868686"/>
<path transform="translate(1610,1181)" d="m0 0 2 2-2 1-2-2z" fill="#868686"/>
<path transform="translate(1040,1394)" d="m0 0h2l-1 4z" fill="#868686"/>
<path transform="translate(1064,1389)" d="m0 0h3v2h-3z" fill="#868686"/>
<path transform="translate(1421,1378)" d="m0 0h2v3l-2-1z" fill="#868686"/>
<path transform="translate(1430,1375)" d="m0 0h2v2l-3-1z" fill="#868686"/>
<path transform="translate(1425,1373)" d="m0 0v3l-2-2z" fill="#868686"/>
<path transform="translate(1473,1339)" d="m0 0 1 2-3 1v-2z" fill="#868686"/>
<path transform="translate(1485,1331)" d="m0 0 3 1-3 1z" fill="#868686"/>
<path transform="translate(607,1301)" d="m0 0 2 1-1 2-2-1z" fill="#868686"/>
<path transform="translate(1512,1301)" d="m0 0v3l-2-2z" fill="#868686"/>
<path transform="translate(1527,1290)" d="m0 0v3l-2-1z" fill="#868686"/>
<path transform="translate(1524,1286)" d="m0 0h2v2l-3-1z" fill="#868686"/>
<path transform="translate(1543,1270)" d="m0 0 1 2-4-1z" fill="#868686"/>
<path transform="translate(1552,1258)" d="m0 0h3v2h-3z" fill="#868686"/>
<path transform="translate(1569,1234)" d="m0 0h2l-1 3z" fill="#868686"/>
<path transform="translate(1603,1188)" d="m0 0 2 1-1 2-2-2z" fill="#868686"/>
<path transform="translate(1611,1188)" d="m0 0 2 1-4 1z" fill="#868686"/>
<path transform="translate(1613,1176)" d="m0 0h3v2h-3z" fill="#868686"/>
<path transform="translate(1652,1110)" d="m0 0 4 1-2 1z" fill="#868686"/>
<path transform="translate(1654,1099)" d="m0 0 4 2h-4z" fill="#868686"/>
<path transform="translate(521,936)" d="m0 0 3 1-3 1z" fill="#868686"/>
<path transform="translate(1404,1389)" d="m0 0 2 2-3-1z" fill="#868686"/>
<path transform="translate(1073,1379)" d="m0 0 2 2-2 1z" fill="#868686"/>
<path transform="translate(1068,1378)" d="m0 0v3z" fill="#868686"/>
<path transform="translate(1428,1377)" d="m0 0v3z" fill="#868686"/>
<path transform="translate(1416,1378)" d="m0 0 2 1h-3z" fill="#868686"/>
<path transform="translate(1419,1375)" d="m0 0v3z" fill="#868686"/>
<path transform="translate(1437,1373)" d="m0 0 4 1z" fill="#868686"/>
<path transform="translate(1434,1373)" d="m0 0 3 1h-3z" fill="#868686"/>
<path transform="translate(1443,1366)" d="m0 0v3z" fill="#868686"/>
<path transform="translate(1463,1349)" d="m0 0 3 1h-3z" fill="#868686"/>
<path transform="translate(1489,1325)" d="m0 0h2l-1 3z" fill="#868686"/>
<path transform="translate(604,1305)" d="m0 0 2 1-1 2z" fill="#868686"/>
<path transform="translate(608,1298)" d="m0 0h2v2h-2z" fill="#868686"/>
<path transform="translate(1515,1294)" d="m0 0 3 1h-3z" fill="#868686"/>
<path transform="translate(1528,1281)" d="m0 0h2v2h-2z" fill="#868686"/>
<path transform="translate(1538,1279)" d="m0 0v3z" fill="#868686"/>
<path transform="translate(1553,1261)" d="m0 0 2 3h-2z" fill="#868686"/>
<path transform="translate(1555,1260)" d="m0 0 2 3h-2z" fill="#868686"/>
<path transform="translate(1564,1248)" d="m0 0h3l-1 2z" fill="#868686"/>
<path transform="translate(1574,1227)" d="m0 0 4 1z" fill="#868686"/>
<path transform="translate(1587,1220)" d="m0 0 3 1-3 1z" fill="#868686"/>
<path transform="translate(1607,1187)" d="m0 0 1 4z" fill="#868686"/>
<path transform="translate(1610,1185)" d="m0 0 1 3-2-1z" fill="#868686"/>
<path transform="translate(1090,1149)" d="m0 0 1 4z" fill="#868686"/>
<path transform="translate(1636,1135)" d="m0 0h3l-1 2z" fill="#868686"/>
<path transform="translate(1639,1133)" d="m0 0h3l-1 2z" fill="#868686"/>
<path transform="translate(1642,1130)" d="m0 0 3 1h-3z" fill="#868686"/>
<path transform="translate(1644,1119)" d="m0 0 3 2h-3z" fill="#868686"/>
<path transform="translate(1105,1117)" d="m0 0 3 1h-3z" fill="#868686"/>
<path transform="translate(1649,1112)" d="m0 0h3l-1 2z" fill="#868686"/>
<path transform="translate(1110,1112)" d="m0 0 3 1h-3z" fill="#868686"/>
<path transform="translate(1150,1104)" d="m0 0 2 3h-2z" fill="#868686"/>
<path transform="translate(1390,1397)" d="m0 0 1 2-2-1z" fill="#868686"/>
<path transform="translate(1064,1392)" d="m0 0h2l-1 2z" fill="#868686"/>
<path transform="translate(1414,1387)" d="m0 0 2 2h-2z" fill="#868686"/>
<path transform="translate(1072,1382)" d="m0 0 2 2h-2z" fill="#868686"/>
<path transform="translate(1061,1382)" d="m0 0 1 2-2-1z" fill="#868686"/>
<path transform="translate(1418,1379)" d="m0 0 3 1z" fill="#868686"/>
<path transform="translate(1446,1358)" d="m0 0 2 1-2 1z" fill="#868686"/>
<path transform="translate(1492,1325)" d="m0 0h2l-1 2z" fill="#868686"/>
<path transform="translate(1487,1322)" d="m0 0 2 2h-2z" fill="#868686"/>
<path transform="translate(1492,1318)" d="m0 0 3 1z" fill="#868686"/>
<path transform="translate(598,1306)" d="m0 0 3 1z" fill="#868686"/>
<path transform="translate(610,1300)" d="m0 0h2l-1 2z" fill="#868686"/>
<path transform="translate(1518,1299)" d="m0 0 2 1-2 1z" fill="#868686"/>
<path transform="translate(1536,1274)" d="m0 0h2l-1 2z" fill="#868686"/>
<path transform="translate(1541,1273)" d="m0 0 3 1z" fill="#868686"/>
<path transform="translate(1548,1260)" d="m0 0 2 2h-2z" fill="#868686"/>
<path transform="translate(1550,1259)" d="m0 0 2 2h-2z" fill="#868686"/>
<path transform="translate(1564,1246)" d="m0 0 3 1z" fill="#868686"/>
<path transform="translate(1569,1244)" d="m0 0h2l-1 2z" fill="#868686"/>
<path transform="translate(1582,1226)" d="m0 0h2l-1 2z" fill="#868686"/>
<path transform="translate(1589,1217)" d="m0 0 2 1-2 1z" fill="#868686"/>
<path transform="translate(1591,1215)" d="m0 0 2 1-2 1z" fill="#868686"/>
<path transform="translate(1584,1215)" d="m0 0 3 1z" fill="#868686"/>
<path transform="translate(1590,1206)" d="m0 0 1 2-2-1z" fill="#868686"/>
<path transform="translate(1601,1203)" d="m0 0 1 2-2-1z" fill="#868686"/>
<path transform="translate(1606,1183)" d="m0 0 2 1-2 1z" fill="#868686"/>
<path transform="translate(1612,1181)" d="m0 0h2l-1 2z" fill="#868686"/>
<path transform="translate(1618,1165)" d="m0 0 2 2h-2z" fill="#868686"/>
<path transform="translate(1627,1156)" d="m0 0h2l-1 2z" fill="#868686"/>
<path transform="translate(1637,1143)" d="m0 0 2 2h-2z" fill="#868686"/>
<path transform="translate(1640,1139)" d="m0 0" fill="#868686"/>
<path transform="translate(1638,1138)" d="m0 0 2 1-2 1z" fill="#868686"/>
<path transform="translate(1638,1130)" d="m0 0h2l-1 2z" fill="#868686"/>
<path transform="translate(1646,1128)" d="m0 0 1 2-2-1z" fill="#868686"/>
<path transform="translate(1643,1123)" d="m0 0" fill="#868686"/>
<path transform="translate(1057,1396)" d="m0 0 2 1z" fill="#868686"/>
<path transform="translate(1410,1392)" d="m0 0" fill="#868686"/>
<path transform="translate(1067,1391)" d="m0 0" fill="#868686"/>
<path transform="translate(1396,1389)" d="m0 0 2 1z" fill="#868686"/>
<path transform="translate(1067,1387)" d="m0 0" fill="#868686"/>
<path transform="translate(1072,1385)" d="m0 0 2 1z" fill="#868686"/>
<path transform="translate(1069,1385)" d="m0 0 2 1z" fill="#868686"/>
<path transform="translate(1419,1384)" d="m0 0 2 1z" fill="#868686"/>
<path transform="translate(1425,1377)" d="m0 0 2 1z" fill="#868686"/>
<path transform="translate(1078,1375)" d="m0 0" fill="#868686"/>
<path transform="translate(1072,1376)" d="m0 0 2 1z" fill="#868686"/>
<path transform="translate(1073,1373)" d="m0 0 2 1z" fill="#868686"/>
<path transform="translate(1428,1368)" d="m0 0" fill="#868686"/>
<path transform="translate(1441,1361)" d="m0 0" fill="#868686"/>
<path transform="translate(1444,1358)" d="m0 0" fill="#868686"/>
<path transform="translate(1463,1354)" d="m0 0" fill="#868686"/>
<path transform="translate(1465,1352)" d="m0 0" fill="#868686"/>
<path transform="translate(1459,1351)" d="m0 0 2 1z" fill="#868686"/>
<path transform="translate(1461,1342)" d="m0 0 2 1z" fill="#868686"/>
<path transform="translate(1466,1341)" d="m0 0 2 1z" fill="#868686"/>
<path transform="translate(1477,1340)" d="m0 0 2 1z" fill="#868686"/>
<path transform="translate(1474,1334)" d="m0 0" fill="#868686"/>
<path transform="translate(1501,1317)" d="m0 0" fill="#868686"/>
<path transform="translate(1499,1316)" d="m0 0 2 1z" fill="#868686"/>
<path transform="translate(1495,1315)" d="m0 0" fill="#868686"/>
<path transform="translate(1505,1312)" d="m0 0 2 1z" fill="#868686"/>
<path transform="translate(1500,1310)" d="m0 0" fill="#868686"/>
<path transform="translate(612,1299)" d="m0 0 2 1z" fill="#868686"/>
<path transform="translate(1524,1296)" d="m0 0 2 1z" fill="#868686"/>
<path transform="translate(1524,1294)" d="m0 0 2 1z" fill="#868686"/>
<path transform="translate(1523,1289)" d="m0 0 2 1z" fill="#868686"/>
<path transform="translate(1530,1286)" d="m0 0" fill="#868686"/>
<path transform="translate(1533,1285)" d="m0 0" fill="#868686"/>
<path transform="translate(1536,1283)" d="m0 0" fill="#868686"/>
<path transform="translate(1533,1276)" d="m0 0 2 1z" fill="#868686"/>
<path transform="translate(1544,1274)" d="m0 0" fill="#868686"/>
<path transform="translate(1547,1270)" d="m0 0" fill="#868686"/>
<path transform="translate(1544,1266)" d="m0 0" fill="#868686"/>
<path transform="translate(1555,1266)" d="m0 0 2 1z" fill="#868686"/>
<path transform="translate(1550,1264)" d="m0 0 2 1z" fill="#868686"/>
<path transform="translate(1556,1256)" d="m0 0" fill="#868686"/>
<path transform="translate(1564,1251)" d="m0 0" fill="#868686"/>
<path transform="translate(1563,1249)" d="m0 0" fill="#868686"/>
<path transform="translate(1559,1248)" d="m0 0 2 1z" fill="#868686"/>
<path transform="translate(1572,1243)" d="m0 0 2 1z" fill="#868686"/>
<path transform="translate(1571,1240)" d="m0 0" fill="#868686"/>
<path transform="translate(1579,1236)" d="m0 0" fill="#868686"/>
<path transform="translate(1579,1225)" d="m0 0" fill="#868686"/>
<path transform="translate(1577,1224)" d="m0 0" fill="#868686"/>
<path transform="translate(1597,1209)" d="m0 0" fill="#868686"/>
<path transform="translate(1596,1207)" d="m0 0" fill="#868686"/>
<path transform="translate(1608,1194)" d="m0 0" fill="#868686"/>
<path transform="translate(1608,1191)" d="m0 0 2 1z" fill="#868686"/>
<path transform="translate(1605,1187)" d="m0 0" fill="#868686"/>
<path transform="translate(1610,1178)" d="m0 0" fill="#868686"/>
<path transform="translate(1618,1175)" d="m0 0" fill="#868686"/>
<path transform="translate(1626,1162)" d="m0 0" fill="#868686"/>
<path transform="translate(1627,1159)" d="m0 0" fill="#868686"/>
<path transform="translate(1090,1157)" d="m0 0" fill="#868686"/>
<path transform="translate(1626,1154)" d="m0 0 2 1z" fill="#868686"/>
<path transform="translate(1629,1148)" d="m0 0 2 1z" fill="#868686"/>
<path transform="translate(1633,1143)" d="m0 0 2 1z" fill="#868686"/>
<path transform="translate(1631,1142)" d="m0 0 2 1z" fill="#868686"/>
<path transform="translate(1635,1138)" d="m0 0 2 1z" fill="#868686"/>
<path transform="translate(1643,1128)" d="m0 0 2 1z" fill="#868686"/>
<path transform="translate(1646,1124)" d="m0 0" fill="#868686"/>
<path transform="translate(1645,1122)" d="m0 0" fill="#868686"/>
<path transform="translate(1647,1118)" d="m0 0 2 1z" fill="#868686"/>
<path transform="translate(1651,1108)" d="m0 0" fill="#868686"/>
<path transform="translate(1655,1107)" d="m0 0" fill="#868686"/>
<path transform="translate(1137,1107)" d="m0 0 2 1z" fill="#868686"/>
<path transform="translate(1144,1105)" d="m0 0" fill="#868686"/>
<path transform="translate(1661,1097)" d="m0 0" fill="#868686"/>
<path transform="translate(1661,1092)" d="m0 0" fill="#868686"/>
<path transform="translate(1661,1084)" d="m0 0" fill="#868686"/>
<path transform="translate(1394,1399)" d="m0 0" fill="#868686"/>
<path transform="translate(1387,1397)" d="m0 0" fill="#868686"/>
<path transform="translate(1407,1396)" d="m0 0" fill="#868686"/>
<path transform="translate(1402,1396)" d="m0 0" fill="#868686"/>
<path transform="translate(1397,1396)" d="m0 0" fill="#868686"/>
<path transform="translate(1394,1396)" d="m0 0" fill="#868686"/>
<path transform="translate(1054,1396)" d="m0 0" fill="#868686"/>
<path transform="translate(1052,1396)" d="m0 0" fill="#868686"/>
<path transform="translate(1035,1396)" d="m0 0" fill="#868686"/>
<path transform="translate(1061,1395)" d="m0 0" fill="#868686"/>
<path transform="translate(1063,1394)" d="m0 0" fill="#868686"/>
<path transform="translate(1056,1394)" d="m0 0" fill="#868686"/>
<path transform="translate(1060,1393)" d="m0 0" fill="#868686"/>
<path transform="translate(1050,1391)" d="m0 0" fill="#868686"/>
<path transform="translate(1068,1389)" d="m0 0" fill="#868686"/>
<path transform="translate(1398,1388)" d="m0 0" fill="#868686"/>
<path transform="translate(1403,1386)" d="m0 0" fill="#868686"/>
<path transform="translate(1071,1386)" d="m0 0" fill="#868686"/>
<path transform="translate(1416,1385)" d="m0 0" fill="#868686"/>
<path transform="translate(1411,1385)" d="m0 0" fill="#868686"/>
<path transform="translate(1055,1385)" d="m0 0" fill="#868686"/>
<path transform="translate(1408,1384)" d="m0 0" fill="#868686"/>
<path transform="translate(1405,1384)" d="m0 0" fill="#868686"/>
<path transform="translate(1062,1384)" d="m0 0" fill="#868686"/>
<path transform="translate(1059,1384)" d="m0 0" fill="#868686"/>
<path transform="translate(1421,1383)" d="m0 0" fill="#868686"/>
<path transform="translate(1407,1383)" d="m0 0" fill="#868686"/>
<path transform="translate(1403,1383)" d="m0 0" fill="#868686"/>
<path transform="translate(1063,1383)" d="m0 0" fill="#868686"/>
<path transform="translate(1420,1381)" d="m0 0" fill="#868686"/>
<path transform="translate(1410,1381)" d="m0 0" fill="#868686"/>
<path transform="translate(1407,1381)" d="m0 0" fill="#868686"/>
<path transform="translate(1409,1380)" d="m0 0" fill="#868686"/>
<path transform="translate(1070,1379)" d="m0 0" fill="#868686"/>
<path transform="translate(1072,1378)" d="m0 0" fill="#868686"/>
<path transform="translate(1423,1377)" d="m0 0" fill="#868686"/>
<path transform="translate(1422,1376)" d="m0 0" fill="#868686"/>
<path transform="translate(1433,1375)" d="m0 0" fill="#868686"/>
<path transform="translate(1420,1373)" d="m0 0" fill="#868686"/>
<path transform="translate(1081,1372)" d="m0 0" fill="#868686"/>
<path transform="translate(1436,1371)" d="m0 0" fill="#868686"/>
<path transform="translate(1423,1371)" d="m0 0" fill="#868686"/>
<path transform="translate(1438,1370)" d="m0 0" fill="#868686"/>
<path transform="translate(1080,1370)" d="m0 0" fill="#868686"/>
<path transform="translate(1449,1367)" d="m0 0" fill="#868686"/>
<path transform="translate(1079,1366)" d="m0 0" fill="#868686"/>
<path transform="translate(1449,1365)" d="m0 0" fill="#868686"/>
<path transform="translate(1452,1361)" d="m0 0" fill="#868686"/>
<path transform="translate(1453,1360)" d="m0 0" fill="#868686"/>
<path transform="translate(1452,1359)" d="m0 0" fill="#868686"/>
<path transform="translate(1457,1358)" d="m0 0" fill="#868686"/>
<path transform="translate(1446,1356)" d="m0 0" fill="#868686"/>
<path transform="translate(1453,1355)" d="m0 0" fill="#868686"/>
<path transform="translate(1461,1353)" d="m0 0" fill="#868686"/>
<path transform="translate(1459,1353)" d="m0 0" fill="#868686"/>
<path transform="translate(1449,1353)" d="m0 0" fill="#868686"/>
<path transform="translate(1458,1352)" d="m0 0" fill="#868686"/>
<path transform="translate(1466,1351)" d="m0 0" fill="#868686"/>
<path transform="translate(1469,1349)" d="m0 0" fill="#868686"/>
<path transform="translate(1469,1341)" d="m0 0" fill="#868686"/>
<path transform="translate(1464,1340)" d="m0 0" fill="#868686"/>
<path transform="translate(1480,1339)" d="m0 0" fill="#868686"/>
<path transform="translate(1472,1338)" d="m0 0" fill="#868686"/>
<path transform="translate(1474,1337)" d="m0 0" fill="#868686"/>
<path transform="translate(1485,1334)" d="m0 0" fill="#868686"/>
<path transform="translate(1484,1333)" d="m0 0" fill="#868686"/>
<path transform="translate(1486,1329)" d="m0 0" fill="#868686"/>
<path transform="translate(1492,1327)" d="m0 0" fill="#868686"/>
<path transform="translate(1488,1327)" d="m0 0" fill="#868686"/>
<path transform="translate(1489,1321)" d="m0 0" fill="#868686"/>
<path transform="translate(1490,1320)" d="m0 0" fill="#868686"/>
<path transform="translate(1500,1319)" d="m0 0" fill="#868686"/>
<path transform="translate(1497,1318)" d="m0 0" fill="#868686"/>
<path transform="translate(1502,1316)" d="m0 0" fill="#868686"/>
<path transform="translate(1497,1315)" d="m0 0" fill="#868686"/>
<path transform="translate(1502,1314)" d="m0 0" fill="#868686"/>
<path transform="translate(1508,1313)" d="m0 0" fill="#868686"/>
<path transform="translate(1503,1310)" d="m0 0" fill="#868686"/>
<path transform="translate(1504,1309)" d="m0 0" fill="#868686"/>
<path transform="translate(1501,1309)" d="m0 0" fill="#868686"/>
<path transform="translate(608,1308)" d="m0 0" fill="#868686"/>
<path transform="translate(600,1308)" d="m0 0" fill="#868686"/>
<path transform="translate(1503,1307)" d="m0 0" fill="#868686"/>
<path transform="translate(603,1307)" d="m0 0" fill="#868686"/>
<path transform="translate(601,1307)" d="m0 0" fill="#868686"/>
<path transform="translate(1508,1305)" d="m0 0" fill="#868686"/>
<path transform="translate(1506,1305)" d="m0 0" fill="#868686"/>
<path transform="translate(1505,1304)" d="m0 0" fill="#868686"/>
<path transform="translate(605,1304)" d="m0 0" fill="#868686"/>
<path transform="translate(603,1304)" d="m0 0" fill="#868686"/>
<path transform="translate(601,1304)" d="m0 0" fill="#868686"/>
<path transform="translate(611,1303)" d="m0 0" fill="#868686"/>
<path transform="translate(602,1303)" d="m0 0" fill="#868686"/>
<path transform="translate(1517,1302)" d="m0 0" fill="#868686"/>
<path transform="translate(1508,1302)" d="m0 0" fill="#868686"/>
<path transform="translate(609,1302)" d="m0 0" fill="#868686"/>
<path transform="translate(604,1302)" d="m0 0" fill="#868686"/>
<path transform="translate(1516,1300)" d="m0 0" fill="#868686"/>
<path transform="translate(1520,1298)" d="m0 0" fill="#868686"/>
<path transform="translate(1515,1298)" d="m0 0" fill="#868686"/>
<path transform="translate(605,1298)" d="m0 0" fill="#868686"/>
<path transform="translate(1513,1297)" d="m0 0" fill="#868686"/>
<path transform="translate(611,1297)" d="m0 0" fill="#868686"/>
<path transform="translate(1514,1296)" d="m0 0" fill="#868686"/>
<path transform="translate(612,1295)" d="m0 0" fill="#868686"/>
<path transform="translate(1534,1290)" d="m0 0" fill="#868686"/>
<path transform="translate(1532,1290)" d="m0 0" fill="#868686"/>
<path transform="translate(1529,1289)" d="m0 0" fill="#868686"/>
<path transform="translate(1520,1289)" d="m0 0" fill="#868686"/>
<path transform="translate(1535,1287)" d="m0 0" fill="#868686"/>
<path transform="translate(1534,1284)" d="m0 0" fill="#868686"/>
<path transform="translate(1533,1283)" d="m0 0" fill="#868686"/>
<path transform="translate(1533,1281)" d="m0 0" fill="#868686"/>
<path transform="translate(1540,1280)" d="m0 0" fill="#868686"/>
<path transform="translate(1532,1279)" d="m0 0" fill="#868686"/>
<path transform="translate(1533,1278)" d="m0 0" fill="#868686"/>
<path transform="translate(1545,1277)" d="m0 0" fill="#868686"/>
<path transform="translate(1536,1277)" d="m0 0" fill="#868686"/>
<path transform="translate(1541,1275)" d="m0 0" fill="#868686"/>
<path transform="translate(1540,1274)" d="m0 0" fill="#868686"/>
<path transform="translate(1545,1271)" d="m0 0" fill="#868686"/>
<path transform="translate(1549,1269)" d="m0 0" fill="#868686"/>
<path transform="translate(1548,1268)" d="m0 0" fill="#868686"/>
<path transform="translate(1540,1268)" d="m0 0" fill="#868686"/>
<path transform="translate(1550,1267)" d="m0 0" fill="#868686"/>
<path transform="translate(1549,1266)" d="m0 0" fill="#868686"/>
<path transform="translate(1546,1262)" d="m0 0" fill="#868686"/>
<path transform="translate(1557,1261)" d="m0 0" fill="#868686"/>
<path transform="translate(1553,1257)" d="m0 0" fill="#868686"/>
<path transform="translate(1551,1256)" d="m0 0" fill="#868686"/>
<path transform="translate(1557,1255)" d="m0 0" fill="#868686"/>
<path transform="translate(1554,1255)" d="m0 0" fill="#868686"/>
<path transform="translate(1561,1254)" d="m0 0" fill="#868686"/>
<path transform="translate(1561,1251)" d="m0 0" fill="#868686"/>
<path transform="translate(1559,1251)" d="m0 0" fill="#868686"/>
<path transform="translate(1560,1250)" d="m0 0" fill="#868686"/>
<path transform="translate(1569,1246)" d="m0 0" fill="#868686"/>
<path transform="translate(1569,1242)" d="m0 0" fill="#868686"/>
<path transform="translate(1575,1240)" d="m0 0" fill="#868686"/>
<path transform="translate(1565,1239)" d="m0 0" fill="#868686"/>
<path transform="translate(1570,1238)" d="m0 0" fill="#868686"/>
<path transform="translate(1582,1232)" d="m0 0" fill="#868686"/>
<path transform="translate(1577,1230)" d="m0 0" fill="#868686"/>
<path transform="translate(1576,1229)" d="m0 0" fill="#868686"/>
<path transform="translate(1586,1225)" d="m0 0" fill="#868686"/>
<path transform="translate(1583,1224)" d="m0 0" fill="#868686"/>
<path transform="translate(1585,1223)" d="m0 0" fill="#868686"/>
<path transform="translate(1579,1222)" d="m0 0" fill="#868686"/>
<path transform="translate(1595,1213)" d="m0 0" fill="#868686"/>
<path transform="translate(1592,1212)" d="m0 0" fill="#868686"/>
<path transform="translate(1598,1211)" d="m0 0" fill="#868686"/>
<path transform="translate(1594,1211)" d="m0 0" fill="#868686"/>
<path transform="translate(1591,1211)" d="m0 0" fill="#868686"/>
<path transform="translate(1601,1207)" d="m0 0" fill="#868686"/>
<path transform="translate(1598,1207)" d="m0 0" fill="#868686"/>
<path transform="translate(1599,1206)" d="m0 0" fill="#868686"/>
<path transform="translate(1594,1200)" d="m0 0" fill="#868686"/>
<path transform="translate(1596,1198)" d="m0 0" fill="#868686"/>
<path transform="translate(1607,1197)" d="m0 0" fill="#868686"/>
<path transform="translate(1604,1197)" d="m0 0" fill="#868686"/>
<path transform="translate(1606,1196)" d="m0 0" fill="#868686"/>
<path transform="translate(1610,1193)" d="m0 0" fill="#868686"/>
<path transform="translate(1613,1185)" d="m0 0" fill="#868686"/>
<path transform="translate(1617,1184)" d="m0 0" fill="#868686"/>
<path transform="translate(1608,1184)" d="m0 0" fill="#868686"/>
<path transform="translate(1614,1183)" d="m0 0" fill="#868686"/>
<path transform="translate(1612,1183)" d="m0 0" fill="#868686"/>
<path transform="translate(1612,1179)" d="m0 0" fill="#868686"/>
<path transform="translate(1610,1176)" d="m0 0" fill="#868686"/>
<path transform="translate(1620,1175)" d="m0 0" fill="#868686"/>
<path transform="translate(1614,1174)" d="m0 0" fill="#868686"/>
<path transform="translate(1615,1172)" d="m0 0" fill="#868686"/>
<path transform="translate(1621,1170)" d="m0 0" fill="#868686"/>
<path transform="translate(1625,1167)" d="m0 0" fill="#868686"/>
<path transform="translate(1622,1161)" d="m0 0" fill="#868686"/>
<path transform="translate(1623,1159)" d="m0 0" fill="#868686"/>
<path transform="translate(1629,1158)" d="m0 0" fill="#868686"/>
<path transform="translate(1625,1158)" d="m0 0" fill="#868686"/>
<path transform="translate(1630,1156)" d="m0 0" fill="#868686"/>
<path transform="translate(1625,1156)" d="m0 0" fill="#868686"/>
<path transform="translate(1632,1155)" d="m0 0" fill="#868686"/>
<path transform="translate(1624,1155)" d="m0 0" fill="#868686"/>
<path transform="translate(1634,1154)" d="m0 0" fill="#868686"/>
<path transform="translate(1629,1153)" d="m0 0" fill="#868686"/>
<path transform="translate(1092,1149)" d="m0 0" fill="#868686"/>
<path transform="translate(1636,1146)" d="m0 0" fill="#868686"/>
<path transform="translate(1633,1146)" d="m0 0" fill="#868686"/>
<path transform="translate(1093,1146)" d="m0 0" fill="#868686"/>
<path transform="translate(1634,1145)" d="m0 0" fill="#868686"/>
<path transform="translate(1633,1141)" d="m0 0" fill="#868686"/>
<path transform="translate(1088,1140)" d="m0 0" fill="#868686"/>
<path transform="translate(1633,1138)" d="m0 0" fill="#868686"/>
<path transform="translate(1634,1137)" d="m0 0" fill="#868686"/>
<path transform="translate(1640,1136)" d="m0 0" fill="#868686"/>
<path transform="translate(1096,1136)" d="m0 0" fill="#868686"/>
<path transform="translate(1644,1135)" d="m0 0" fill="#868686"/>
<path transform="translate(1647,1134)" d="m0 0" fill="#868686"/>
<path transform="translate(1643,1133)" d="m0 0" fill="#868686"/>
<path transform="translate(1099,1132)" d="m0 0" fill="#868686"/>
<path transform="translate(1647,1126)" d="m0 0" fill="#868686"/>
<path transform="translate(1650,1125)" d="m0 0" fill="#868686"/>
<path transform="translate(1641,1125)" d="m0 0" fill="#868686"/>
<path transform="translate(1652,1122)" d="m0 0" fill="#868686"/>
<path transform="translate(1649,1117)" d="m0 0" fill="#868686"/>
<path transform="translate(1086,1117)" d="m0 0" fill="#868686"/>
<path transform="translate(1656,1115)" d="m0 0" fill="#868686"/>
<path transform="translate(1647,1115)" d="m0 0" fill="#868686"/>
<path transform="translate(1109,1115)" d="m0 0" fill="#868686"/>
<path transform="translate(1656,1109)" d="m0 0" fill="#868686"/>
<path transform="translate(1657,1106)" d="m0 0" fill="#868686"/>
<path transform="translate(1658,1104)" d="m0 0" fill="#868686"/>
<path transform="translate(1655,1104)" d="m0 0" fill="#868686"/>
<path transform="translate(1145,1104)" d="m0 0" fill="#868686"/>
<path transform="translate(1152,1103)" d="m0 0" fill="#868686"/>
<path transform="translate(1157,1102)" d="m0 0" fill="#868686"/>
<path transform="translate(1156,1101)" d="m0 0" fill="#868686"/>
<path transform="translate(1147,1099)" d="m0 0" fill="#868686"/>
<path transform="translate(1146,1098)" d="m0 0" fill="#868686"/>
<path transform="translate(1661,1095)" d="m0 0" fill="#868686"/>
<path transform="translate(1659,1095)" d="m0 0" fill="#868686"/>
<path transform="translate(1658,1092)" d="m0 0" fill="#868686"/>
<path transform="translate(1657,1091)" d="m0 0" fill="#868686"/>
<path transform="translate(1663,1090)" d="m0 0" fill="#868686"/>
<path transform="translate(1659,1089)" d="m0 0" fill="#868686"/>
<path transform="translate(1665,1084)" d="m0 0" fill="#868686"/>
<path transform="translate(1668,1074)" d="m0 0" fill="#868686"/>
<path transform="translate(527,958)" d="m0 0" fill="#868686"/>
</svg>
