<?xml version="1.0" encoding="UTF-8"?>
<svg version="1.1" viewBox="0 0 1080 1080" width="1080" height="1080" xmlns="http://www.w3.org/2000/svg">
<path transform="translate(520,184)" d="m0 0h43l34 4 21 5 21 6 18 7 8 3 11 6 8 3 9 6 11 6 20 14 8 6 3 3 5 3 5 5 6 5 4 5 7 6 5 5 11 12 6 8 4 5 10 13 4 7 3 3 5 10 6 9 8 16 7 17 3 5 8 25 2 5 7 30 3 16 3 40v27l-3 39-5 25-6 25-7 19-4 11-8 16-12 19-5 5-9 6-8 2h-15l-8-2v82l-3 11-6 12-8 8-13 8-18 2-15-2-9-6-8-6-7-10-4-9-1-6v-132l-6 5-9 14-3 5-4 6-8 10-8 7-11 3h-11l-11-2-1 148-4 13-10 14-14 10-4 2-10 2h-16l-13-3-15-10-5-7-3-3-5-12-2-7-1-176-3 3-4 7-9 11-9 7-11 3h-10l-11-3-10-8-3-1v69l-3 12-7 12-10 10-14 6-14 2-14-3-13-7-8-8-6-10-3-9-1-72-1-15-2 3h-2l-2 4-4 6-11 9-11 3h-10l-11-3-10-8-4-5-7-12-8-16-4-12-6-13-6-20-4-14-7-39-2-19v-46l2-19 8-44 8-25 5-14 4-9 4-10 8-16 6-9 3-7 7-10 6-9 7-10 11-13 9-11 3-3h2l2-4 5-5h2l2-4 12-11 14-11 11-8 9-6 11-7 8-4 11-6 16-8 10-3 12-5 21-6 21-5z" fill="#FA6EA8"/>
<path transform="translate(526,272)" d="m0 0h10l18 2 15 4 5 2 8 2 9 4 19 10 20 16 8 7 7 8 9 11 3 4 9 15 9 17 3 10 4 10 3 12 3 18v41l-4 27-5 15-3 8-6 12-5 9-9 11-5 6-5 5-14 11-6 4-9 4-9 5-8 2-15 5-10 2-29 3h-29l-29-3-17-4-20-7-10-6-8-4-8-6-8-7-13-13-10-15-9-19-7-24-2-10-1-13v-38l2-14 5-18 5-16 6-11 3-8 7-11 6-8 8-11 10-10 5-6 6-4h2l2-4 15-10 21-11 5-2 7-2 19-5z" fill="#FEFEFE"/>
<path transform="translate(532,636)" d="m0 0h12l11 3 10 9 7 8 14 20 6 8 9 7 2 3v149l-4 13-10 14-14 10-4 2-10 2h-16l-13-3-15-10-5-7-3-3-5-12-2-7v-181l8-12 10-9 7-3z" fill="#4D56A5"/>
<path transform="translate(693,636)" d="m0 0h11l11 3 10 9 6 7 8 11 6 9 6 7 5 5 7 6 2 1v2h2v81l-3 11-6 12-8 8-13 8-18 2-15-2-9-6-8-6-7-10-4-9-1-6v-134l5-5 8-3z" fill="#4D56A5"/>
<path transform="translate(372,636)" d="m0 0h12l9 2 13 11 1 3h2l10 14 7 10 4 5 1 3v70l-3 12-7 12-10 10-14 6-14 2-14-3-13-7-8-8-6-10-3-9-1-88 3-9 7-10 12-12 8-3z" fill="#4D56A5"/>
<path transform="translate(487,321)" d="m0 0 15 1 12 5 8 4 12 11 10 16 4 16v21l-4 17-11 17h-2v2l-5 2-2 4-10 6-10 4-12 2-11-1-8-2-14-6-13-11-5-6-7-14-2-5-1-12v-14l1-12 8-16 3-5 9-10 10-7 15-6z" fill="#080D78"/>
<path transform="translate(476,341)" d="m0 0h7l10 3 9 7 4 5 3 12-1 10-4 9-7 7-11 5h-13l-13-6-8-11-2-9 1-12 4-7 5-6 11-6z" fill="#FEFEFE"/>
</svg>
