<?xml version="1.0" encoding="UTF-8"?>
<svg version="1.1" viewBox="0 0 1120 1120" width="280" height="280" xmlns="http://www.w3.org/2000/svg">
<path transform="translate(97,17)" d="m0 0h25l12 2 16 6 12 7 10 8 10 10 10 15 7 16 7 1 819 1 1 1 1 827 7 1 17 9 11 9 10 10 10 15 6 15 4 17v24l-5 19-4 10-10 16-7 8-11 9-13 8-12 5-20 5h-21l-21-5-16-8-9-6-13-12-10-14-8-16-1-6h-826l-1-1-1-154-20-9-11-8-12-11-8-10-8-16-5-15-1-6v-28l3-12 6-15 8-13 11-13 13-10 15-8 9-4v-493l-12-5-14-8-11-9-7-7-7-10-8-15-5-16-1-5v-28l3-13 6-15 8-13 8-10 10-9 14-9 15-6zm104 118-3 1-6 15-10 16-7 8-13 10-15 8-10 4-1 2v110l1 1h170v-175zm157 0v175h170l1-2v-172l-1-1zm222 0v175h107l3-3 5-12 8-14 7-7 5-6 11-8 14-8 12-5v-112zm224 0-1 11v101l12 5 14 8 10 8 11 12 8 13 5 11 2 5 1 1h107l1-43v-131l-1-1zm62 225-5 12-9 17-13 15-9 7-12 7-13 5-1 1-1 15v93l136 1h30l4-1 1-42v-125l-1-4zm-729 1-1 15v156l7 1h157l7-2v-169l-1-1zm222 0-1 7v164h107l2-2 5-15 8-14 9-11 10-9 14-9 14-5 1-1 1-22v-36l-1-47zm221 0v105l16 6 13 8 10 9 7 7 9 14 6 13 3 9 7 1 101-1v-107l-5-3-12-5-14-9-13-12-8-11-12-24zm-443 223-1 16v91l16 8 12 7 10 9h2l2 4 6 7 8 13 6 14 2 2h105l1-1 1-44v-126zm222 0-1 2v168l1 1h169l1-2v-82l-1-29-15-7-10-6-14-12-10-12-8-14-3-7zm391-1-109 1-5 12-6 10-9 11-11 10-16 9-13 6-1 1v112h171l1-1v-170zm53 1v162l1 8 38 1h131l1-43v-128zm-604 223-2 2-5 13-7 12-9 10-10 9-11 7-18 8-1 3v101l47 1h120l3-1 1-30v-134l-1-1zm160 0-1 7v158l5 1h164l2-1v-127l-1-38zm391-1-170 1v165l7 1h161l4-1v-165zm54 1-1 1v164l1 1h90l17-1 5-11 6-12 11-14 10-9 14-9 11-5 5-2 1-21v-81l-1-1z" fill="#03DFA8"/>
<path transform="translate(199,82)" d="m0 0 826 1 1 1v824l-8-1h-39l-6 1v-100h-170v-56l1 2h38l131 1v-148l1-23h-170l-1-6v-46h170v-171h-106l1-8v-33l-2-10h107v-174l-169-1-1 112-7-2-8-1h-31l-5 1v-110h-172v175l-34-1-18-1v-172l-170-1v174h-38l-14-1v-68l1-105h-106l1-13v-16l-2-20z" fill="#C0EF1D"/>
<path transform="translate(306,807)" d="m0 0h53v165h170l-1-127v-37l1-1h51v165h172v23l-1 27-3 2h-663l-1-1v-153l9 1h44l-1 101h170z" fill="#BEEF1F"/>
<path transform="translate(338,361)" d="m0 0h21l-1 171h-40l-11-1-1-4v-164l1-1z" fill="#C1F01D"/>
<path transform="translate(307,584)" d="m0 0h52l-1 170h-30l-20-1-2-1v-147z" fill="#C1F01D"/>
<path transform="translate(528,644)" d="m0 0h52v110h-35l-17-1z" fill="#BEEF1F"/>
<path transform="translate(645,532)" d="m0 0h107v50l-2 2h-108l3-11 1-8v-23z" fill="#BDEF1F"/>
<path transform="translate(551,361)" d="m0 0h26l3 1v102l-16-2h-20l-16 2v-101l2-1z" fill="#BDEF1F"/>
</svg>
