<?xml version="1.0" encoding="UTF-8"?>
<svg version="1.1" viewBox="0 0 900 900" width="225" height="225" xmlns="http://www.w3.org/2000/svg">
<path transform="translate(0)" d="m0 0h900v900h-900z" fill="#032035"/>
<path transform="translate(290,265)" d="m0 0h56l23 2 25 5 19 7 15 8 16 12 11 11 9 13 9 19 5 18 2 15v20l-2 19-6 21-8 16-10 14-13 13-11 8-14 8-12 5-23 6-24 3-17 1h-30l-11-1v111l-1 2h-73l-1-23v-324l1-7 15-1z" fill="#2EA4FE"/>
<path transform="translate(610,348)" d="m0 0h22l26 2 21 4 15 6 1 1v64l-8-1-15-6-19-5-20-3h-27l-13 4-5 6-1 2v8l3 6 9 7 16 8 30 12 22 11 12 8 10 8 9 10 8 15 4 16 1 16-2 14-5 15-8 14-11 12-10 8-10 6-18 7-19 4-10 1h-42l-21-3-18-4-17-6-5-4-1-2v-60l1-5 6 2 19 9 20 6 21 4 13 1h12l15-2 10-5 4-5v-10l-4-6-9-7-18-8-25-10-16-8-15-9-13-11-11-14-6-13-4-18v-17l4-17 8-16 7-10h2l2-4 11-9 16-9 18-6 15-3z" fill="#2EA4FE"/>
<path transform="translate(301,331)" d="m0 0h47l20 4 12 5 11 8 8 10 6 15 1 7v12l-3 16-5 10-9 10-11 7-12 5-18 4-9 1h-40v-113z" fill="#032035"/>
</svg>
