<?xml version="1.0" encoding="UTF-8"?>
<svg version="1.1" viewBox="0 0 2048 2048" width="700" height="700" xmlns="http://www.w3.org/2000/svg">
<path transform="translate(341,341)" d="m0 0h1365l1 1v1364l-5 1h-1361l-1-2z" fill="#7D2642"/>
<path transform="translate(739,612)" d="m0 0 509 1h81l70-1h29l2 2-16 13-16 15-14 15-12 11-5 4-6 8-7 8-17 16-10 10-5 3-108 1h-124v78l-1 105-1 14h-105l-2-4v-25l1-55-8 7-6 6h-2l-2 4-9 11-10 16-10 12-11 16-11 15-12 17-8 10-4 6 213-1h285l1 2-7 11-12 16-12 18-10 16-8 10-6 4-13 22-7 11-5 5-10 14-13 18-15 24-12 13-4 5-11 21-10 13-7 7-22 33-13 18-10 14-6 7-8 15-8 10-10 11-12 17-8 15-11 14-16 23-9 15-10 13-13 14-8 14-6 12-6 7-5 5-11 15-12 19-14 20-12 14-6 9-8 15h-3v-349l1-65 1-17 1-2h64l39 1 3 1v49l-1 41 5-3 13-21 13-18 10-13 6-9 6-11 8-10 8-7 7-11 8-14 5-12-85 1h-406l-9-1 1-4 10-15 6-11 9-9 10-14 16-21 7-11 10-14 9-11 9-9 10-18 9-10 8-9 11-17 7-11 9-9 12-17 12-15 14-20 11-12 5-5 10-18 7-9 7-6 10-14 7-11 6-11 7-10h-287l-1-3 7-8 4-2 2-4 14-15 14-12 11-12 7-8 9-8 8-7 12-13 8-10z" fill="#FEFEFE"/>
</svg>
