<?xml version="1.0" encoding="UTF-8"?>
<svg version="1.1" viewBox="0 0 1440 864" width="360" height="216" xmlns="http://www.w3.org/2000/svg">
<path transform="translate(329,432)" d="m0 0h64l21 2 28 4 34 7 24 7 31 12 25 12 19 11 24 16 14 11 17 14 15 13 13 12 71 71 8 7 3 2v2l4 2 13 11 15 10 13 8 23 11 15 5 25 5 20 3h32l25-4 19-5 12-4 15-7 12-6 17-10 14-10 9-8 8-7 15-14 11-12 12-14 8-11 3-1 1 2-6 18-8 26-12 30-7 16-13 26-14 23-10 14-9 12-9 11-9 10-15 15-11 9-15 12-15 10-21 12-16 8-19 8-30 10-25 6-29 5-31 4h-78l-44-7-33-7-27-8-30-12-28-14-21-13-12-8-17-13-16-13-10-9-12-11-8-7-73-73-8-7-16-13-13-9-15-10-16-8-18-7-26-6-24-3h-37l-19 3-19 5-22 8-21 11-16 10-13 10-10 8h-2v2l-8 7-11 10-7 8-10 11-11 14-6 5v-7l3-5 8-26 7-20 11-27 12-25 9-16 14-22 7-9 13-17 12-13 19-19 9-7 14-11 20-13 17-10 20-9 26-10 26-8 24-5 17-3z" fill="#02B4D4"/>
<path transform="translate(679)" d="m0 0h78l39 5 36 7 24 7 28 10 24 11 22 12 14 9 16 11 16 12 13 11 11 9 9 9 8 7 72 72 8 7 15 13 17 12 17 11 20 9 18 6 22 5 31 4h14l20-3 15-2 18-5 22-8 19-10 13-8 18-13 13-11 12-11 8-8 7-8 9-10 11-14 4-2v7l-3 5-5 16-13 37-9 21-12 25-9 16-12 19-14 19-9 10-8 10-13 13h-2l-2 4-11 9-15 12-15 10-21 12-19 9-28 11-26 8-35 7-29 4-26 2h-45l-36-3-24-3-25-5-27-7-23-8-23-10-22-11-23-14-20-14-11-9-14-11-15-14-12-11-6-5-66-66-4-3v-2l-4-2-10-9-17-13-15-10-16-9-22-9-15-4-14-3-22-3h-38l-20 3-24 7-16 6-16 8-17 10-16 12-16 13-8 8-8 7-12 13-9 11-10 13-3 1 1-6 6-19 11-33 8-20 11-24 9-17 14-23 14-20 13-15 7-8 21-21 11-9 16-12 21-13 12-7 21-10 21-8 27-8 38-8 27-4z" fill="#02B4D4"/>
</svg>
